<?xml version="1.0" standalone="no"?>
<!DOCTYPE svg PUBLIC "-//W3C//DTD SVG 20010904//EN"
 "http://www.w3.org/TR/2001/REC-SVG-20010904/DTD/svg10.dtd">
<svg version="1.0" xmlns="http://www.w3.org/2000/svg"
 width="1024.000000pt" height="1024.000000pt" viewBox="0 0 1024.000000 1024.000000"
 preserveAspectRatio="xMidYMid meet">
<metadata>
Created by potrace 1.11, written by Peter Selinger 2001-2013
</metadata>
<g transform="translate(0.000000,1024.000000) scale(0.100000,-0.100000)"
fill="#000000" stroke="none">
<path d="M4460 8135 c-60 -16 -114 -51 -176 -116 -69 -73 -1434 -2126 -1495
-2249 -54 -108 -94 -241 -107 -350 -5 -41 -9 -304 -9 -583 0 -282 -4 -512 -9
-517 -5 -5 -254 -91 -554 -191 -300 -100 -563 -190 -584 -201 -56 -29 -128
-106 -151 -164 -19 -47 -20 -75 -23 -701 -2 -647 -2 -652 20 -710 50 -135 139
-224 249 -249 42 -10 133 -10 174 -1 63 14 65 14 170 42 55 14 152 40 215 56
63 17 208 55 323 85 114 30 215 57 225 59 15 3 427 111 627 165 44 12 88 23
97 25 10 2 68 17 130 34 62 16 167 44 233 61 230 60 344 103 470 178 317 188
564 543 629 905 27 148 29 194 29 1017 -1 839 -1 858 -40 935 -27 53 -102 133
-151 160 -81 45 -206 63 -285 40 -129 -39 -244 -159 -272 -285 -5 -19 -9 -269
-10 -555 -1 -448 -3 -525 -17 -555 -50 -113 -206 -139 -305 -52 -53 46 -54 51
-53 620 0 290 2 541 5 557 28 158 52 237 105 345 32 66 135 242 433 743 43 71
77 130 77 132 0 2 19 34 42 71 23 38 83 139 133 224 51 85 134 227 186 315 52
88 105 180 117 206 41 85 39 213 -5 308 -74 158 -266 243 -443 196z"/>
<path d="M5590 8127 c-204 -81 -298 -241 -255 -437 10 -46 41 -103 235 -430
168 -284 410 -692 440 -745 10 -16 68 -115 131 -220 182 -306 214 -366 246
-455 64 -178 66 -201 67 -784 2 -571 1 -583 -52 -638 -59 -63 -183 -69 -257
-12 -67 51 -67 52 -69 641 -2 516 -3 529 -24 583 -39 99 -117 178 -212 217
-220 88 -466 -46 -511 -280 -5 -26 -8 -414 -7 -870 1 -799 2 -842 31 -1017 12
-72 77 -243 127 -337 112 -209 288 -404 470 -518 73 -46 199 -106 279 -132 41
-13 228 -64 416 -113 187 -50 426 -112 530 -140 105 -28 336 -89 515 -136 179
-46 395 -103 480 -126 301 -79 330 -85 402 -82 88 4 174 41 226 98 49 53 100
156 110 221 4 28 7 327 6 665 -1 615 -1 615 -24 674 -31 81 -88 139 -174 180
-39 19 -305 111 -591 206 -286 95 -523 175 -527 179 -4 3 -8 247 -8 541 -1
294 -6 558 -11 585 -5 28 -12 62 -14 76 -9 49 -47 162 -73 218 -42 89 -64 124
-777 1196 -372 561 -680 1025 -682 1032 -3 7 -8 13 -12 13 -3 0 -32 24 -63 54
-106 100 -255 137 -368 93z"/>
</g>
</svg>
